<svg xmlns="http://www.w3.org/2000/svg" xmlns:xlink="http://www.w3.org/1999/xlink" aria-hidden="true" role="img" class="iconify iconify--logos" width="31.88" height="32" preserveAspectRatio="xMidYMid meet" viewBox="0 0 256 257"><defs><linearGradient id="IconifyId1813088fe1fbc01fb466" x1="-.828%" x2="57.636%" y1="7.652%" y2="78.411%"><stop offset="0%" stop-color="#41D1FF"></stop><stop offset="100%" stop-color="#BD34FE"></stop></linearGradient><linearGradient id="IconifyId1813088fe1fbc01fb467" x1="43.376%" x2="50.316%" y1="2.242%" y2="89.03%"><stop offset="0%" stop-color="#FFBD4F"></stop><stop offset="100%" stop-color="#FF980E"></stop></linearGradient></defs><path fill="url(#IconifyId1813088fe1fbc01fb466)" d="M255.153 37.938L134.897 252.976c-2.483 4.44-8.862 4.466-11.382.048L.875 37.958c-2.746-4.814 1.371-10.646 6.827-9.67l120.385 21.517a6.537 6.537 0 0 0 2.322-.004l117.867-21.483c5.438-.991 9.574 4.796 6.877 9.62Z"></path><path fill="url(#IconifyId1813088fe1fbc01fb467)" d="M185.432.063L96.44 17.501a3.268 3.268 0 0 0-2.634 3.014l-5.474 92.456a3.268 3.268 0 0 0 3.997 3.378l24.777-5.718c2.318-.532 4.413 1.507 3.936 3.838l-7.361 36.047c-.495 2.426 1.782 4.5 4.151 3.78l15.304-4.649c2.372-.72 4.652 1.36 4.15 3.788l-11.698 56.621c-.732 3.542 3.979 5.473 6.384 3.126l76.47-73.062c2.17-2.07.91-5.737-2.07-6.165l-25.428-3.79c-2.516-.376-3.39-3.314-1.676-5.023l43.47-42.307c1.754-1.71 1.032-4.587-1.32-5.18l-49.57-12.26c-2.28-.57-4.335 1.25-3.838 3.838l9.407 44.968c.523 2.497-2.797 4.307-4.808 2.582L99.628 5.09c-1.634-1.29-4.027-.764-4.82 1.074L59.06 43.823c-.797 1.85.54 3.89 2.52 4.07l28.418 2.746c2.387.23 3.546 2.979 1.876 4.57L47.22 85.23c-1.634 1.53-.28 4.29 1.876 4.57l28.418 2.746c2.387.23 3.546 2.979 1.876 4.57L47.22 85.23c-1.634 1.53-.28 4.29 1.876 4.57l28.418 2.746"></path></svg>
